<svg width="118" height="26" viewBox="0 0 118 26" fill="none" xmlns="http://www.w3.org/2000/svg">
<g clip-path="url(#clip0_2299_4089)">
<path fill-rule="evenodd" clip-rule="evenodd" d="M8.00006 7.16634C6.71139 7.16634 5.66673 8.21101 5.66673 9.49967C5.66673 10.7883 6.71139 11.833 8.00006 11.833C9.28872 11.833 10.3334 10.7883 10.3334 9.49967C10.3334 8.21101 9.28872 7.16634 8.00006 7.16634ZM4.33339 9.49967C4.33339 7.47463 5.97501 5.83301 8.00006 5.83301C10.0251 5.83301 11.6667 7.47463 11.6667 9.49967C11.6667 11.5247 10.0251 13.1663 8.00006 13.1663C5.97501 13.1663 4.33339 11.5247 4.33339 9.49967Z" fill="#FF3F3A"/>
<path fill-rule="evenodd" clip-rule="evenodd" d="M4.06943 15.1663C3.60722 15.1663 3.24595 15.3914 3.0993 15.7148C2.89632 16.1623 2.71252 16.6951 2.66915 17.2005C2.64976 17.4264 2.74395 17.5928 2.87374 17.6735C3.55985 18.0997 5.14965 18.833 8.00006 18.833C10.8505 18.833 12.4403 18.0997 13.1264 17.6735C13.2562 17.5928 13.3504 17.4264 13.331 17.2005C13.2876 16.6951 13.1038 16.1623 12.9008 15.7148C12.7542 15.3914 12.3929 15.1663 11.9307 15.1663H4.06943ZM1.88501 15.164C2.29031 14.2704 3.19533 13.833 4.06943 13.833H11.9307C12.8048 13.833 13.7098 14.2704 14.1151 15.164C14.3479 15.6773 14.5977 16.3673 14.6594 17.0864C14.7156 17.7413 14.4435 18.4249 13.83 18.8061C12.9276 19.3666 11.0931 20.1663 8.00006 20.1663C4.90699 20.1663 3.07253 19.3666 2.17017 18.8061C1.55666 18.4249 1.2845 17.7413 1.3407 17.0864C1.40242 16.3673 1.65222 15.6773 1.88501 15.164Z" fill="#FF3F3A"/>
<path d="M29 7.304C29.5333 7.304 30.0133 7.38133 30.44 7.536C30.872 7.68533 31.24 7.896 31.544 8.168C31.848 8.43467 32.08 8.74933 32.24 9.112C32.4053 9.47467 32.488 9.86667 32.488 10.288C32.488 10.656 32.4453 10.9813 32.36 11.264C32.28 11.5413 32.16 11.784 32 11.992C31.8453 12.2 31.6533 12.376 31.424 12.52C31.2 12.664 30.944 12.784 30.656 12.88C31.3493 13.0987 31.8667 13.432 32.208 13.88C32.5493 14.328 32.72 14.8907 32.72 15.568C32.72 16.144 32.6133 16.6533 32.4 17.096C32.1867 17.5387 31.8987 17.912 31.536 18.216C31.1733 18.5147 30.752 18.7413 30.272 18.896C29.7973 19.0507 29.2933 19.128 28.76 19.128C28.1787 19.128 27.672 19.0613 27.24 18.928C26.808 18.7947 26.432 18.5973 26.112 18.336C25.792 18.0747 25.52 17.7547 25.296 17.376C25.072 16.9973 24.88 16.56 24.72 16.064L25.592 15.704C25.7413 15.64 25.8933 15.608 26.048 15.608C26.1867 15.608 26.3093 15.6373 26.416 15.696C26.528 15.7547 26.6133 15.84 26.672 15.952C26.768 16.1387 26.872 16.3227 26.984 16.504C27.1013 16.6853 27.24 16.848 27.4 16.992C27.56 17.1307 27.7467 17.2453 27.96 17.336C28.1787 17.4213 28.4373 17.464 28.736 17.464C29.072 17.464 29.3653 17.4107 29.616 17.304C29.8667 17.192 30.0747 17.048 30.24 16.872C30.4107 16.696 30.536 16.5013 30.616 16.288C30.7013 16.0693 30.744 15.8507 30.744 15.632C30.744 15.3547 30.7147 15.104 30.656 14.88C30.5973 14.6507 30.4747 14.456 30.288 14.296C30.1013 14.136 29.832 14.0107 29.48 13.92C29.1333 13.8293 28.6667 13.784 28.08 13.784V12.376C28.5653 12.3707 28.968 12.3253 29.288 12.24C29.608 12.1547 29.8613 12.0373 30.048 11.888C30.24 11.7333 30.3733 11.5493 30.448 11.336C30.5227 11.1227 30.56 10.888 30.56 10.632C30.56 10.0827 30.4107 9.66933 30.112 9.392C29.8133 9.10933 29.4053 8.968 28.888 8.968C28.4187 8.968 28.0293 9.09333 27.72 9.344C27.4107 9.58933 27.1947 9.90667 27.072 10.296C27.008 10.4987 26.92 10.6453 26.808 10.736C26.696 10.8213 26.5493 10.864 26.368 10.864C26.2827 10.864 26.192 10.856 26.096 10.84L25.056 10.656C25.136 10.1013 25.2907 9.616 25.52 9.2C25.7493 8.77867 26.0347 8.42933 26.376 8.152C26.7227 7.86933 27.1173 7.65867 27.56 7.52C28.008 7.376 28.488 7.304 29 7.304ZM41.1933 8.272C41.1933 8.55467 41.1026 8.784 40.9213 8.96C40.7453 9.136 40.4493 9.224 40.0333 9.224H36.8493L36.4333 11.64C36.9559 11.5333 37.4333 11.48 37.8653 11.48C38.4733 11.48 39.0066 11.5707 39.4653 11.752C39.9293 11.9333 40.3186 12.184 40.6333 12.504C40.9479 12.824 41.1853 13.2 41.3453 13.632C41.5053 14.0587 41.5853 14.52 41.5853 15.016C41.5853 15.6293 41.4759 16.1893 41.2573 16.696C41.0439 17.2027 40.7453 17.6373 40.3613 18C39.9773 18.3573 39.5213 18.6347 38.9933 18.832C38.4706 19.0293 37.8999 19.128 37.2812 19.128C36.9186 19.128 36.5746 19.0907 36.2493 19.016C35.9239 18.9413 35.6173 18.8427 35.3293 18.72C35.0466 18.592 34.7826 18.448 34.5373 18.288C34.2973 18.1227 34.0813 17.9493 33.8893 17.768L34.4973 16.928C34.6253 16.7467 34.7959 16.656 35.0093 16.656C35.1426 16.656 35.2759 16.6987 35.4093 16.784C35.5479 16.8693 35.7079 16.9627 35.8893 17.064C36.0706 17.1653 36.2813 17.2587 36.5213 17.344C36.7613 17.4293 37.0519 17.472 37.3932 17.472C37.7559 17.472 38.0759 17.4133 38.3533 17.296C38.6306 17.1787 38.8599 17.016 39.0413 16.808C39.2279 16.5947 39.3666 16.344 39.4573 16.056C39.5533 15.7627 39.6013 15.4453 39.6013 15.104C39.6013 14.4747 39.4173 13.984 39.0493 13.632C38.6866 13.2747 38.1506 13.096 37.4413 13.096C36.8813 13.096 36.3186 13.1973 35.7533 13.4L34.5213 13.048L35.4813 7.432H41.1933V8.272ZM51.4425 13.216C51.4425 14.224 51.3332 15.1013 51.1145 15.848C50.9012 16.5893 50.6025 17.2027 50.2185 17.688C49.8398 18.1733 49.3892 18.536 48.8665 18.776C48.3492 19.0107 47.7892 19.128 47.1865 19.128C46.5838 19.128 46.0238 19.0107 45.5065 18.776C44.9945 18.536 44.5492 18.1733 44.1705 17.688C43.7918 17.2027 43.4958 16.5893 43.2825 15.848C43.0692 15.1013 42.9625 14.224 42.9625 13.216C42.9625 12.2027 43.0692 11.3253 43.2825 10.584C43.4958 9.84267 43.7918 9.22933 44.1705 8.744C44.5492 8.25867 44.9945 7.89867 45.5065 7.664C46.0238 7.424 46.5838 7.304 47.1865 7.304C47.7892 7.304 48.3492 7.424 48.8665 7.664C49.3892 7.89867 49.8398 8.25867 50.2185 8.744C50.6025 9.22933 50.9012 9.84267 51.1145 10.584C51.3332 11.3253 51.4425 12.2027 51.4425 13.216ZM49.4025 13.216C49.4025 12.3787 49.3412 11.6853 49.2185 11.136C49.0958 10.5867 48.9305 10.1493 48.7225 9.824C48.5198 9.49867 48.2852 9.272 48.0185 9.144C47.7518 9.01067 47.4745 8.944 47.1865 8.944C46.9038 8.944 46.6292 9.01067 46.3625 9.144C46.1012 9.272 45.8692 9.49867 45.6665 9.824C45.4638 10.1493 45.3012 10.5867 45.1785 11.136C45.0612 11.6853 45.0025 12.3787 45.0025 13.216C45.0025 14.0533 45.0612 14.7467 45.1785 15.296C45.3012 15.8453 45.4638 16.2827 45.6665 16.608C45.8692 16.9333 46.1012 17.1627 46.3625 17.296C46.6292 17.424 46.9038 17.488 47.1865 17.488C47.4745 17.488 47.7518 17.424 48.0185 17.296C48.2852 17.1627 48.5198 16.9333 48.7225 16.608C48.9305 16.2827 49.0958 15.8453 49.2185 15.296C49.3412 14.7467 49.4025 14.0533 49.4025 13.216ZM60.8655 12.392C60.8122 12.4773 60.7562 12.5387 60.6975 12.576C60.6388 12.608 60.5642 12.624 60.4735 12.624C60.3775 12.624 60.2735 12.5973 60.1615 12.544C60.0548 12.4907 59.9295 12.432 59.7855 12.368C59.6415 12.2987 59.4762 12.2373 59.2895 12.184C59.1082 12.1307 58.8922 12.104 58.6415 12.104C58.2522 12.104 57.9455 12.1867 57.7215 12.352C57.4975 12.5173 57.3855 12.7333 57.3855 13C57.3855 13.176 57.4415 13.3253 57.5535 13.448C57.6708 13.5653 57.8228 13.6693 58.0095 13.76C58.2015 13.8507 58.4175 13.9333 58.6575 14.008C58.8975 14.0773 59.1428 14.1547 59.3935 14.24C59.6442 14.3253 59.8895 14.424 60.1295 14.536C60.3695 14.6427 60.5828 14.7813 60.7695 14.952C60.9615 15.1173 61.1135 15.3173 61.2255 15.552C61.3428 15.7867 61.4015 16.0693 61.4015 16.4C61.4015 16.7947 61.3295 17.16 61.1855 17.496C61.0415 17.8267 60.8308 18.1147 60.5535 18.36C60.2762 18.6 59.9322 18.7893 59.5215 18.928C59.1162 19.0613 58.6495 19.128 58.1215 19.128C57.8388 19.128 57.5615 19.1013 57.2895 19.048C57.0228 19 56.7642 18.9307 56.5135 18.84C56.2682 18.7493 56.0388 18.6427 55.8255 18.52C55.6175 18.3973 55.4335 18.264 55.2735 18.12L55.7295 17.368C55.7882 17.2773 55.8575 17.208 55.9375 17.16C56.0175 17.112 56.1188 17.088 56.2415 17.088C56.3642 17.088 56.4788 17.1227 56.5855 17.192C56.6975 17.2613 56.8255 17.336 56.9695 17.416C57.1135 17.496 57.2815 17.5707 57.4735 17.64C57.6708 17.7093 57.9188 17.744 58.2175 17.744C58.4522 17.744 58.6522 17.7173 58.8175 17.664C58.9882 17.6053 59.1268 17.5307 59.2335 17.44C59.3455 17.3493 59.4255 17.2453 59.4735 17.128C59.5268 17.0053 59.5535 16.88 59.5535 16.752C59.5535 16.56 59.4948 16.4027 59.3775 16.28C59.2655 16.1573 59.1135 16.0507 58.9215 15.96C58.7348 15.8693 58.5188 15.7893 58.2735 15.72C58.0335 15.6453 57.7855 15.5653 57.5295 15.48C57.2788 15.3947 57.0308 15.296 56.7855 15.184C56.5455 15.0667 56.3295 14.92 56.1375 14.744C55.9508 14.568 55.7988 14.352 55.6815 14.096C55.5695 13.84 55.5135 13.5307 55.5135 13.168C55.5135 12.832 55.5802 12.512 55.7135 12.208C55.8468 11.904 56.0415 11.64 56.2975 11.416C56.5588 11.1867 56.8815 11.0053 57.2655 10.872C57.6548 10.7333 58.1028 10.664 58.6095 10.664C59.1748 10.664 59.6895 10.7573 60.1535 10.944C60.6175 11.1307 61.0042 11.376 61.3135 11.68L60.8655 12.392ZM65.6739 19.128C64.9645 19.128 64.4179 18.928 64.0339 18.528C63.6499 18.1227 63.4579 17.5653 63.4579 16.856V12.272H62.6259C62.5192 12.272 62.4259 12.2373 62.3459 12.168C62.2712 12.0987 62.2339 11.9947 62.2339 11.856V11.072L63.5539 10.856L63.9699 8.616C63.9912 8.50933 64.0392 8.42667 64.1139 8.368C64.1939 8.30933 64.2925 8.28 64.4099 8.28H65.4339V10.864H67.5939V12.272H65.4339V16.72C65.4339 16.976 65.4979 17.176 65.6259 17.32C65.7539 17.464 65.9245 17.536 66.1379 17.536C66.2605 17.536 66.3619 17.5227 66.4419 17.496C66.5272 17.464 66.5992 17.432 66.6579 17.4C66.7219 17.368 66.7779 17.3387 66.8259 17.312C66.8739 17.28 66.9219 17.264 66.9699 17.264C67.0285 17.264 67.0765 17.28 67.1139 17.312C67.1512 17.3387 67.1912 17.3813 67.2339 17.44L67.8259 18.4C67.5379 18.64 67.2072 18.8213 66.8339 18.944C66.4605 19.0667 66.0739 19.128 65.6739 19.128ZM70.9734 10.792V16.008C70.9734 16.5093 71.088 16.8987 71.3174 17.176C71.552 17.448 71.9014 17.584 72.3654 17.584C72.7067 17.584 73.0267 17.5093 73.3254 17.36C73.624 17.2053 73.9067 16.9947 74.1734 16.728V10.792H76.1494V19H74.9414C74.6854 19 74.5174 18.88 74.4374 18.64L74.3014 17.984C74.1307 18.1547 73.9547 18.312 73.7734 18.456C73.592 18.5947 73.3974 18.7147 73.1894 18.816C72.9867 18.912 72.7654 18.9867 72.5254 19.04C72.2907 19.0987 72.0374 19.128 71.7654 19.128C71.3174 19.128 70.92 19.0533 70.5734 18.904C70.232 18.7493 69.944 18.5333 69.7094 18.256C69.4747 17.9787 69.296 17.6507 69.1734 17.272C69.056 16.888 68.9974 16.4667 68.9974 16.008V10.792H70.9734ZM84.0351 19C83.7791 19 83.6111 18.88 83.5311 18.64L83.3711 17.848C83.2005 18.04 83.0218 18.2133 82.8351 18.368C82.6485 18.5227 82.4458 18.656 82.2271 18.768C82.0138 18.88 81.7818 18.9653 81.5311 19.024C81.2858 19.088 81.0191 19.12 80.7311 19.12C80.2831 19.12 79.8725 19.0267 79.4991 18.84C79.1258 18.6533 78.8031 18.384 78.5311 18.032C78.2645 17.6747 78.0565 17.2347 77.9071 16.712C77.7631 16.1893 77.6911 15.592 77.6911 14.92C77.6911 14.312 77.7738 13.7467 77.9391 13.224C78.1045 12.7013 78.3418 12.248 78.6511 11.864C78.9605 11.48 79.3311 11.1813 79.7631 10.968C80.1951 10.7493 80.6805 10.64 81.2191 10.64C81.6778 10.64 82.0698 10.7147 82.3951 10.864C82.7205 11.008 83.0111 11.2027 83.2671 11.448V7.112H85.2431V19H84.0351ZM81.4031 17.552C81.8138 17.552 82.1631 17.4667 82.4511 17.296C82.7391 17.1253 83.0111 16.8827 83.2671 16.568V12.888C83.0431 12.616 82.7978 12.424 82.5311 12.312C82.2698 12.2 81.9871 12.144 81.6831 12.144C81.3845 12.144 81.1125 12.2 80.8671 12.312C80.6271 12.424 80.4218 12.5947 80.2511 12.824C80.0858 13.048 79.9578 13.336 79.8671 13.688C79.7765 14.0347 79.7311 14.4453 79.7311 14.92C79.7311 15.4 79.7685 15.808 79.8431 16.144C79.9231 16.4747 80.0351 16.7467 80.1791 16.96C80.3231 17.168 80.4991 17.32 80.7071 17.416C80.9151 17.5067 81.1471 17.552 81.4031 17.552ZM90.7761 10.664C91.2935 10.664 91.7681 10.7467 92.2001 10.912C92.6375 11.0773 93.0135 11.32 93.3281 11.64C93.6428 11.9547 93.8881 12.344 94.0641 12.808C94.2401 13.2667 94.3281 13.792 94.3281 14.384C94.3281 14.5333 94.3201 14.6587 94.3041 14.76C94.2935 14.856 94.2695 14.9333 94.2321 14.992C94.2001 15.0453 94.1548 15.0853 94.0961 15.112C94.0375 15.1333 93.9628 15.144 93.8721 15.144H88.8001C88.8588 15.9867 89.0855 16.6053 89.4801 17C89.8748 17.3947 90.3975 17.592 91.0481 17.592C91.3681 17.592 91.6428 17.5547 91.8721 17.48C92.1068 17.4053 92.3095 17.3227 92.4801 17.232C92.6561 17.1413 92.8081 17.0587 92.9361 16.984C93.0695 16.9093 93.1975 16.872 93.3201 16.872C93.4001 16.872 93.4695 16.888 93.5281 16.92C93.5868 16.952 93.6375 16.9973 93.6801 17.056L94.2561 17.776C94.0375 18.032 93.7921 18.248 93.5201 18.424C93.2481 18.5947 92.9628 18.7333 92.6641 18.84C92.3708 18.9413 92.0695 19.0133 91.7601 19.056C91.4561 19.0987 91.1601 19.12 90.8721 19.12C90.3015 19.12 89.7708 19.0267 89.2801 18.84C88.7895 18.648 88.3628 18.368 88.0001 18C87.6375 17.6267 87.3521 17.168 87.1441 16.624C86.9361 16.0747 86.8321 15.44 86.8321 14.72C86.8321 14.16 86.9228 13.6347 87.1041 13.144C87.2855 12.648 87.5441 12.2187 87.8801 11.856C88.2215 11.488 88.6348 11.1973 89.1201 10.984C89.6108 10.7707 90.1628 10.664 90.7761 10.664ZM90.8161 12.08C90.2401 12.08 89.7895 12.2427 89.4641 12.568C89.1388 12.8933 88.9308 13.3547 88.8401 13.952H92.5521C92.5521 13.696 92.5175 13.456 92.4481 13.232C92.3788 13.0027 92.2721 12.8027 92.1281 12.632C91.9841 12.4613 91.8028 12.328 91.5841 12.232C91.3655 12.1307 91.1095 12.08 90.8161 12.08ZM95.931 19V10.792H97.139C97.395 10.792 97.563 10.912 97.643 11.152L97.779 11.8C97.9443 11.6293 98.1177 11.4747 98.299 11.336C98.4857 11.1973 98.6803 11.0773 98.883 10.976C99.091 10.8747 99.3123 10.7973 99.547 10.744C99.7817 10.6907 100.038 10.664 100.315 10.664C100.763 10.664 101.16 10.7413 101.507 10.896C101.854 11.0453 102.142 11.2587 102.371 11.536C102.606 11.808 102.782 12.136 102.899 12.52C103.022 12.8987 103.083 13.3173 103.083 13.776V19H101.107V13.776C101.107 13.2747 100.99 12.888 100.755 12.616C100.526 12.3387 100.179 12.2 99.715 12.2C99.3737 12.2 99.0537 12.2773 98.755 12.432C98.4563 12.5867 98.1737 12.7973 97.907 13.064V19H95.931ZM107.721 19.128C107.011 19.128 106.465 18.928 106.081 18.528C105.697 18.1227 105.505 17.5653 105.505 16.856V12.272H104.673C104.566 12.272 104.473 12.2373 104.393 12.168C104.318 12.0987 104.281 11.9947 104.281 11.856V11.072L105.601 10.856L106.017 8.616C106.038 8.50933 106.086 8.42667 106.161 8.368C106.241 8.30933 106.339 8.28 106.457 8.28H107.481V10.864H109.641V12.272H107.481V16.72C107.481 16.976 107.545 17.176 107.673 17.32C107.801 17.464 107.971 17.536 108.185 17.536C108.307 17.536 108.409 17.5227 108.489 17.496C108.574 17.464 108.646 17.432 108.705 17.4C108.769 17.368 108.825 17.3387 108.873 17.312C108.921 17.28 108.969 17.264 109.017 17.264C109.075 17.264 109.123 17.28 109.161 17.312C109.198 17.3387 109.238 17.3813 109.281 17.44L109.873 18.4C109.585 18.64 109.254 18.8213 108.881 18.944C108.507 19.0667 108.121 19.128 107.721 19.128ZM116.084 12.392C116.031 12.4773 115.975 12.5387 115.916 12.576C115.858 12.608 115.783 12.624 115.692 12.624C115.596 12.624 115.492 12.5973 115.38 12.544C115.274 12.4907 115.148 12.432 115.004 12.368C114.86 12.2987 114.695 12.2373 114.508 12.184C114.327 12.1307 114.111 12.104 113.86 12.104C113.471 12.104 113.164 12.1867 112.94 12.352C112.716 12.5173 112.604 12.7333 112.604 13C112.604 13.176 112.66 13.3253 112.772 13.448C112.89 13.5653 113.042 13.6693 113.228 13.76C113.42 13.8507 113.636 13.9333 113.876 14.008C114.116 14.0773 114.362 14.1547 114.612 14.24C114.863 14.3253 115.108 14.424 115.348 14.536C115.588 14.6427 115.802 14.7813 115.988 14.952C116.18 15.1173 116.332 15.3173 116.444 15.552C116.562 15.7867 116.62 16.0693 116.62 16.4C116.62 16.7947 116.548 17.16 116.404 17.496C116.26 17.8267 116.05 18.1147 115.772 18.36C115.495 18.6 115.151 18.7893 114.74 18.928C114.335 19.0613 113.868 19.128 113.34 19.128C113.058 19.128 112.78 19.1013 112.508 19.048C112.242 19 111.983 18.9307 111.732 18.84C111.487 18.7493 111.258 18.6427 111.044 18.52C110.836 18.3973 110.652 18.264 110.492 18.12L110.948 17.368C111.007 17.2773 111.076 17.208 111.156 17.16C111.236 17.112 111.338 17.088 111.46 17.088C111.583 17.088 111.698 17.1227 111.804 17.192C111.916 17.2613 112.044 17.336 112.188 17.416C112.332 17.496 112.5 17.5707 112.692 17.64C112.89 17.7093 113.138 17.744 113.436 17.744C113.671 17.744 113.871 17.7173 114.036 17.664C114.207 17.6053 114.346 17.5307 114.452 17.44C114.564 17.3493 114.644 17.2453 114.692 17.128C114.746 17.0053 114.772 16.88 114.772 16.752C114.772 16.56 114.714 16.4027 114.596 16.28C114.484 16.1573 114.332 16.0507 114.14 15.96C113.954 15.8693 113.738 15.7893 113.492 15.72C113.252 15.6453 113.004 15.5653 112.748 15.48C112.498 15.3947 112.25 15.296 112.004 15.184C111.764 15.0667 111.548 14.92 111.356 14.744C111.17 14.568 111.018 14.352 110.9 14.096C110.788 13.84 110.732 13.5307 110.732 13.168C110.732 12.832 110.799 12.512 110.932 12.208C111.066 11.904 111.26 11.64 111.516 11.416C111.778 11.1867 112.1 11.0053 112.484 10.872C112.874 10.7333 113.322 10.664 113.828 10.664C114.394 10.664 114.908 10.7573 115.372 10.944C115.836 11.1307 116.223 11.376 116.532 11.68L116.084 12.392Z" fill="#424551"/>
</g>
<defs>
<clipPath id="clip0_2299_4089">
<rect width="118" height="26" fill="white"/>
</clipPath>
</defs>
</svg>
